<svg xmlns="http://www.w3.org/2000/svg" xmlns:xlink="http://www.w3.org/1999/xlink" contentScriptType="text/ecmascript" width="375" viewBox="0 0 375 52.5" height="52.5" version="1.0"><defs><g id="b"><path d="M 13 -27.230469 L 3.316406 -27.230469 L 3.316406 0 L 13 0 C 21.832031 0 26.269531 -6.710938 26.269531 -13.460938 C 26.269531 -20.210938 21.832031 -27.230469 13 -27.230469 Z M 13 -3.894531 L 7.214844 -3.894531 L 7.214844 -23.335938 L 13 -23.335938 C 19.246094 -23.335938 22.410156 -18.246094 22.410156 -13.460938 C 22.410156 -8.679688 19.246094 -3.894531 13 -3.894531 Z M 13 -3.894531"/></g><g id="c"><path d="M 19.789062 -3.894531 L 7.25 -3.894531 L 7.25 -11.84375 L 19.480469 -11.84375 L 19.480469 -15.777344 L 7.25 -15.777344 L 7.25 -23.375 L 19.75 -23.375 L 19.75 -27.269531 L 3.316406 -27.269531 L 3.316406 0 L 19.789062 0 Z M 19.789062 -3.894531"/></g><g id="d"><path d="M 13.152344 -13.691406 L 8.601562 -13.691406 L 8.601562 -11.84375 L 18.4375 0 L 23.492188 0 L 14.964844 -10.144531 C 19.59375 -10.953125 21.949219 -14.582031 21.949219 -18.398438 C 21.949219 -22.679688 19.015625 -27.347656 13.152344 -27.347656 L 3.316406 -27.347656 L 3.316406 0 L 7.175781 0 L 7.175781 -23.414062 L 13.152344 -23.414062 C 16.433594 -23.414062 18.050781 -20.714844 18.050781 -18.398438 C 18.050781 -16.046875 16.433594 -13.691406 13.152344 -13.691406 Z M 13.152344 -13.691406"/></g><g id="e"><path d="M 7.175781 0 L 7.175781 -27 L 3.316406 -27 L 3.316406 0 Z M 17.320312 -27 L 7.90625 -14.464844 L 7.90625 -12.496094 L 18.207031 0 L 23.222656 0 L 11.84375 -13.578125 L 22.140625 -27 Z M 17.320312 -27"/></g><g id="g"><path d="M 18.628906 -16.277344 L 7.214844 -16.277344 L 7.214844 -27.230469 L 3.316406 -27.230469 L 3.316406 0 L 7.214844 0 L 7.214844 -12.421875 L 18.628906 -12.421875 L 18.628906 0 L 22.566406 0 L 22.566406 -27.230469 L 18.628906 -27.230469 Z M 18.628906 -16.277344"/></g><g id="h"><path d="M 1.351562 -13.5 C 1.351562 -5.707031 7.558594 0.5 15.351562 0.5 C 23.144531 0.5 29.390625 -5.707031 29.390625 -13.5 C 29.390625 -21.292969 23.144531 -27.539062 15.351562 -27.539062 C 7.558594 -27.539062 1.351562 -21.292969 1.351562 -13.5 Z M 5.363281 -13.5 C 5.363281 -19.054688 9.796875 -23.53125 15.351562 -23.53125 C 20.90625 -23.53125 25.378906 -19.054688 25.378906 -13.5 C 25.378906 -7.945312 20.90625 -3.511719 15.351562 -3.511719 C 9.796875 -3.511719 5.363281 -7.945312 5.363281 -13.5 Z M 5.363281 -13.5"/></g><g id="i"><path d="M 19.902344 -3.894531 L 7.214844 -3.894531 L 7.214844 -27 L 3.316406 -27 L 3.316406 0 L 19.902344 0 Z M 19.902344 -3.894531"/></g><g id="j"><path d="M 6.671875 -6.828125 L 17.628906 -6.828125 L 20.210938 0 L 24.378906 0 L 13.539062 -27.347656 L 10.683594 -27.347656 L -0.152344 0 L 4.050781 0 Z M 16.199219 -10.492188 L 8.101562 -10.492188 L 12.148438 -21.136719 Z M 16.199219 -10.492188"/></g><g id="k"><path d="M 3.316406 -27 L 3.316406 0 L 7.214844 0 L 7.214844 -18.863281 L 20.25 0 L 23.335938 0 L 23.335938 -27 L 19.480469 -27 L 19.480469 -7.984375 L 6.324219 -27 Z M 3.316406 -27"/></g><clipPath id="a"><path d="M 1.769531 1.273438 L 67.144531 1.273438 L 67.144531 50.304688 L 1.769531 50.304688 Z M 1.769531 1.273438"/></clipPath></defs><g clip-path="url(#a)"><path fill="#38B6FF" d="M 34.457031 1.273438 L 29.011719 50.304688 L 34.457031 50.304688 L 39.90625 1.273438 Z M 17.316406 10.242188 L 1.773438 25.789062 L 17.316406 41.335938 L 21.167969 37.484375 L 9.476562 25.789062 L 21.167969 14.09375 Z M 51.597656 10.242188 L 47.746094 14.09375 L 59.4375 25.789062 L 47.746094 37.484375 L 51.597656 41.335938 L 67.140625 25.789062 Z M 51.597656 10.242188"/></g><g fill="#FFF"><use x="69.572" y="38.766" xmlns:xlink="http://www.w3.org/1999/xlink" xlink:href="#b" xlink:type="simple" xlink:actuate="onLoad" xlink:show="embed"/></g><g fill="#FFF"><use x="97.53" y="38.766" xmlns:xlink="http://www.w3.org/1999/xlink" xlink:href="#c" xlink:type="simple" xlink:actuate="onLoad" xlink:show="embed"/></g><g fill="#FFF"><use x="119.048" y="38.766" xmlns:xlink="http://www.w3.org/1999/xlink" xlink:href="#d" xlink:type="simple" xlink:actuate="onLoad" xlink:show="embed"/></g><g fill="#FFF"><use x="142.031" y="38.766" xmlns:xlink="http://www.w3.org/1999/xlink" xlink:href="#c" xlink:type="simple" xlink:actuate="onLoad" xlink:show="embed"/></g><g fill="#FFF"><use x="163.549" y="38.766" xmlns:xlink="http://www.w3.org/1999/xlink" xlink:href="#e" xlink:type="simple" xlink:actuate="onLoad" xlink:show="embed"/></g><g fill="#FFF"><use x="186.532" y="38.766" xmlns:xlink="http://www.w3.org/1999/xlink" xlink:href="#f" xlink:type="simple" xlink:actuate="onLoad" xlink:show="embed"/></g><g fill="#FFF"><use x="196.134" y="38.766" xmlns:xlink="http://www.w3.org/1999/xlink" xlink:href="#g" xlink:type="simple" xlink:actuate="onLoad" xlink:show="embed"/></g><g fill="#FFF"><use x="222.01" y="38.766" xmlns:xlink="http://www.w3.org/1999/xlink" xlink:href="#h" xlink:type="simple" xlink:actuate="onLoad" xlink:show="embed"/></g><g fill="#FFF"><use x="253.014" y="38.766" xmlns:xlink="http://www.w3.org/1999/xlink" xlink:href="#i" xlink:type="simple" xlink:actuate="onLoad" xlink:show="embed"/></g><g fill="#FFF"><use x="273.105" y="38.766" xmlns:xlink="http://www.w3.org/1999/xlink" xlink:href="#i" xlink:type="simple" xlink:actuate="onLoad" xlink:show="embed"/></g><g fill="#FFF"><use x="293.196" y="38.766" xmlns:xlink="http://www.w3.org/1999/xlink" xlink:href="#j" xlink:type="simple" xlink:actuate="onLoad" xlink:show="embed"/></g><g fill="#FFF"><use x="317.645" y="38.766" xmlns:xlink="http://www.w3.org/1999/xlink" xlink:href="#k" xlink:type="simple" xlink:actuate="onLoad" xlink:show="embed"/></g><g fill="#FFF"><use x="344.291" y="38.766" xmlns:xlink="http://www.w3.org/1999/xlink" xlink:href="#b" xlink:type="simple" xlink:actuate="onLoad" xlink:show="embed"/></g></svg>