<svg xmlns="http://www.w3.org/2000/svg" xmlns:xlink="http://www.w3.org/1999/xlink" contentScriptType="text/ecmascript" width="60" viewBox="0 0 60 30" height="30" version="1.0"><defs><g id="b"><path d="M 7.335938 -15.367188 L 1.871094 -15.367188 L 1.871094 0 L 7.335938 0 C 12.320312 0 14.824219 -3.789062 14.824219 -7.597656 C 14.824219 -11.40625 12.320312 -15.367188 7.335938 -15.367188 Z M 7.335938 -2.199219 L 4.070312 -2.199219 L 4.070312 -13.167969 L 7.335938 -13.167969 C 10.863281 -13.167969 12.648438 -10.296875 12.648438 -7.597656 C 12.648438 -4.898438 10.863281 -2.199219 7.335938 -2.199219 Z M 7.335938 -2.199219"/></g><g id="c"><path d="M 10.511719 -9.1875 L 4.070312 -9.1875 L 4.070312 -15.367188 L 1.871094 -15.367188 L 1.871094 0 L 4.070312 0 L 4.070312 -7.007812 L 10.511719 -7.007812 L 10.511719 0 L 12.734375 0 L 12.734375 -15.367188 L 10.511719 -15.367188 Z M 10.511719 -9.1875"/></g><clipPath id="a"><path d="M 0.96875 5.277344 L 27.097656 5.277344 L 27.097656 24.871094 L 0.96875 24.871094 Z M 0.96875 5.277344"/></clipPath></defs><g clip-path="url(#a)"><path fill="#38B6FF" d="M 14.03125 5.277344 L 11.855469 24.871094 L 14.03125 24.871094 L 16.210938 5.277344 Z M 7.183594 8.859375 L 0.972656 15.074219 L 7.183594 21.289062 L 8.722656 19.746094 L 4.050781 15.074219 L 8.722656 10.398438 Z M 20.882812 8.859375 L 19.34375 10.398438 L 24.015625 15.074219 L 19.34375 19.746094 L 20.882812 21.289062 L 27.09375 15.074219 Z M 20.882812 8.859375"/></g><g fill="#38B6FF"><use x="28.635" y="23.224" xmlns:xlink="http://www.w3.org/1999/xlink" xlink:href="#b" xlink:type="simple" xlink:actuate="onLoad" xlink:show="embed"/></g><g fill="#38B6FF"><use x="44.674" y="23.224" xmlns:xlink="http://www.w3.org/1999/xlink" xlink:href="#c" xlink:type="simple" xlink:actuate="onLoad" xlink:show="embed"/></g></svg>