<svg xmlns="http://www.w3.org/2000/svg" xmlns:xlink="http://www.w3.org/1999/xlink" contentScriptType="text/ecmascript" width="375" viewBox="0 0 375 375" height="375" version="1.0"><defs><g id="b"><path d="M 74 -40.3125 C 74 -27.40625 70.445312 -17.457031 63.34375 -10.46875 C 56.238281 -3.488281 46.25 0 33.375 0 L 8.359375 0 L 8.359375 -77.328125 L 35.125 -77.328125 C 47.53125 -77.328125 57.109375 -74.15625 63.859375 -67.8125 C 70.617188 -61.46875 74 -52.300781 74 -40.3125 Z M 52.3125 -39.5625 C 52.3125 -46.65625 50.910156 -51.910156 48.109375 -55.328125 C 45.304688 -58.742188 41.046875 -60.453125 35.328125 -60.453125 L 29.25 -60.453125 L 29.25 -17.140625 L 33.90625 -17.140625 C 40.25 -17.140625 44.898438 -18.976562 47.859375 -22.65625 C 50.828125 -26.34375 52.3125 -31.976562 52.3125 -39.5625 Z M 52.3125 -39.5625"/></g><g id="c"><path d="M 70.4375 0 L 50.625 0 L 50.625 -29.75 L 27.703125 -29.75 L 27.703125 0 L 7.890625 0 L 7.890625 -72.984375 L 27.703125 -72.984375 L 27.703125 -45.921875 L 50.625 -45.921875 L 50.625 -72.984375 L 70.4375 -72.984375 Z M 70.4375 0"/></g><clipPath id="a"><path d="M 0 46.75 L 375 46.75 L 375 328 L 0 328 Z M 0 46.75"/></clipPath></defs><g clip-path="url(#a)"><path fill="#38B6FF" d="M 187.5 46.75 L 156.25 328 L 187.5 328 L 218.75 46.75 Z M 89.171875 98.203125 L 0 187.375 L 89.171875 276.550781 L 111.265625 254.453125 L 44.191406 187.375 L 111.265625 120.300781 Z M 285.828125 98.203125 L 263.734375 120.300781 L 330.8125 187.375 L 263.734375 254.453125 L 285.828125 276.550781 L 375 187.375 Z M 285.828125 98.203125"/></g><g fill="#FFF"><use x="85.175" y="229.297" xmlns:xlink="http://www.w3.org/1999/xlink" xlink:href="#b" xlink:type="simple" xlink:actuate="onLoad" xlink:show="embed"/></g><g fill="#FFF"><use x="208.431" y="226.815" xmlns:xlink="http://www.w3.org/1999/xlink" xlink:href="#c" xlink:type="simple" xlink:actuate="onLoad" xlink:show="embed"/></g></svg>