<svg xmlns="http://www.w3.org/2000/svg" xmlns:xlink="http://www.w3.org/1999/xlink" contentScriptType="text/ecmascript" width="375" viewBox="0 0 375 150" height="150" version="1.0"><defs><clipPath id="a"><path d="M 8.117188 2.179688 L 94.367188 2.179688 L 94.367188 145.429688 L 8.117188 145.429688 Z M 8.117188 2.179688"/></clipPath><clipPath id="d"><path d="M 280.632812 2.425781 L 366.882812 2.425781 L 366.882812 145.675781 L 280.632812 145.675781 Z M 280.632812 2.425781"/></clipPath><g id="b"><path d="M 42.695312 -89.441406 L 10.894531 -89.441406 L 10.894531 0 L 42.695312 0 C 71.707031 0 86.273438 -22.042969 86.273438 -44.214844 C 86.273438 -66.382812 71.707031 -89.441406 42.695312 -89.441406 Z M 42.695312 -12.796875 L 23.691406 -12.796875 L 23.691406 -76.644531 L 42.695312 -76.644531 C 63.21875 -76.644531 73.605469 -59.921875 73.605469 -44.214844 C 73.605469 -28.503906 63.21875 -12.796875 42.695312 -12.796875 Z M 42.695312 -12.796875"/></g><g id="c"><path d="M 61.191406 -53.460938 L 23.691406 -53.460938 L 23.691406 -89.441406 L 10.894531 -89.441406 L 10.894531 0 L 23.691406 0 L 23.691406 -40.792969 L 61.191406 -40.792969 L 61.191406 0 L 74.113281 0 L 74.113281 -89.441406 L 61.191406 -89.441406 Z M 61.191406 -53.460938"/></g></defs><g clip-path="url(#a)"><path fill="#38B6FF" d="M 79.3125 145.277344 L 8.128906 74.039062 L 79.808594 2.3125 L 94.382812 16.894531 L 37.277344 74.039062 L 93.886719 130.691406 L 79.3125 145.277344"/></g><g fill="#FFF"><use x="99.081" y="122.254" xmlns:xlink="http://www.w3.org/1999/xlink" xlink:href="#b" xlink:type="simple" xlink:actuate="onLoad" xlink:show="embed"/></g><g fill="#FFF"><use x="190.923" y="122.254" xmlns:xlink="http://www.w3.org/1999/xlink" xlink:href="#c" xlink:type="simple" xlink:actuate="onLoad" xlink:show="embed"/></g><g clip-path="url(#d)"><path fill="#38B6FF" d="M 295.6875 2.578125 L 366.867188 73.8125 L 295.191406 145.542969 L 280.617188 130.960938 L 337.71875 73.8125 L 281.109375 17.164062 L 295.6875 2.578125"/></g></svg>