<svg xmlns="http://www.w3.org/2000/svg" xmlns:xlink="http://www.w3.org/1999/xlink" width="375" viewBox="0 0 375 225" height="225" version="1.0"><defs><g id="d"><path d="M 6.140625 -28.875 L 25.296875 -28.875 L 24.5625 -25.421875 L 15.234375 -25.421875 L 13.46875 -17.109375 L 21.234375 -17.109375 L 20.515625 -13.59375 L 12.734375 -13.59375 L 9.828125 0 L 0 0 Z M 6.140625 -28.875"/></g><g id="e"><path d="M 12.140625 -10.328125 C 11.992188 -9.660156 11.875 -9.082031 11.78125 -8.59375 C 11.6875 -8.113281 11.640625 -7.660156 11.640625 -7.234375 C 11.640625 -6.171875 12.007812 -5.320312 12.75 -4.6875 C 13.5 -4.050781 14.601562 -3.734375 16.0625 -3.734375 C 17.113281 -3.734375 17.976562 -3.914062 18.65625 -4.28125 C 19.34375 -4.644531 19.90625 -5.128906 20.34375 -5.734375 C 20.789062 -6.335938 21.140625 -7.03125 21.390625 -7.8125 C 21.648438 -8.601562 21.875 -9.441406 22.0625 -10.328125 L 25.921875 -28.875 L 30.0625 -28.875 L 26.109375 -10.234375 C 25.804688 -8.773438 25.363281 -7.410156 24.78125 -6.140625 C 24.207031 -4.867188 23.382812 -3.742188 22.3125 -2.765625 C 21.238281 -1.796875 19.847656 -1.03125 18.140625 -0.46875 C 16.441406 0.0820312 14.335938 0.359375 11.828125 0.359375 C 8.335938 0.359375 5.757812 -0.207031 4.09375 -1.34375 C 2.425781 -2.476562 1.59375 -4.226562 1.59375 -6.59375 C 1.59375 -7.65625 1.726562 -9.003906 2 -10.640625 C 2.269531 -12.273438 2.617188 -14.050781 3.046875 -15.96875 L 5.828125 -28.875 L 16.140625 -28.875 Z M 12.140625 -10.328125"/></g><g id="f"><path d="M 6.140625 -28.875 L 16.015625 -28.875 L 10.640625 -3.828125 L 19.875 -3.828125 L 19.109375 0 L 0 0 Z M 6.140625 -28.875"/></g><g id="p"><path d="M 27.703125 -25.421875 L 20.375 -25.421875 L 14.96875 0 L 5.140625 0 L 10.546875 -25.421875 L 3.328125 -25.421875 L 4.140625 -28.875 L 28.46875 -28.875 Z M 27.703125 -25.421875"/></g><g id="q"><path d="M 25.25 0 L 15.421875 0 L 18.140625 -12.875 L 12.546875 -12.875 L 9.828125 0 L 0 0 L 6.140625 -28.875 L 16.015625 -28.875 L 13.328125 -16.328125 L 18.875 -16.328125 L 21.5625 -28.875 L 31.46875 -28.875 Z M 25.25 0"/></g><g id="r"><path d="M 28.34375 -22.015625 C 28.34375 -20.222656 27.835938 -18.566406 26.828125 -17.046875 C 25.828125 -15.535156 24.175781 -14.382812 21.875 -13.59375 L 27.15625 0 L 17.015625 0 L 13.015625 -12.59375 L 12.515625 -12.59375 L 9.828125 0 L 0 0 L 6.140625 -28.875 L 18.109375 -28.875 C 19.492188 -28.875 20.804688 -28.789062 22.046875 -28.625 C 23.296875 -28.457031 24.382812 -28.125 25.3125 -27.625 C 26.238281 -27.125 26.972656 -26.425781 27.515625 -25.53125 C 28.066406 -24.644531 28.34375 -23.472656 28.34375 -22.015625 Z M 15.234375 -15.515625 C 16.023438 -15.515625 16.703125 -15.78125 17.265625 -16.3125 C 17.828125 -16.84375 18.28125 -17.484375 18.625 -18.234375 C 18.976562 -18.992188 19.226562 -19.804688 19.375 -20.671875 C 19.53125 -21.535156 19.609375 -22.285156 19.609375 -22.921875 C 19.609375 -23.710938 19.46875 -24.390625 19.1875 -24.953125 C 18.914062 -25.515625 18.328125 -25.796875 17.421875 -25.796875 L 15.375 -25.796875 L 13.09375 -15.515625 Z M 15.234375 -15.515625"/></g><g id="s"><path d="M 18.6875 -29.34375 C 21.300781 -29.34375 23.414062 -29.007812 25.03125 -28.34375 C 26.65625 -27.675781 27.9375 -26.644531 28.875 -25.25 C 29.488281 -24.300781 29.960938 -23.234375 30.296875 -22.046875 C 30.628906 -20.867188 30.796875 -19.507812 30.796875 -17.96875 C 30.796875 -16.632812 30.671875 -15.300781 30.421875 -13.96875 C 30.179688 -12.632812 29.84375 -11.351562 29.40625 -10.125 C 28.96875 -8.894531 28.4375 -7.738281 27.8125 -6.65625 C 27.1875 -5.582031 26.5 -4.640625 25.75 -3.828125 C 24.320312 -2.273438 22.675781 -1.1875 20.8125 -0.5625 C 18.945312 0.0507812 16.648438 0.359375 13.921875 0.359375 C 11.285156 0.359375 9.160156 0.0859375 7.546875 -0.453125 C 5.941406 -1.003906 4.671875 -1.882812 3.734375 -3.09375 C 3.066406 -3.9375 2.539062 -5.007812 2.15625 -6.3125 C 1.78125 -7.625 1.59375 -9.265625 1.59375 -11.234375 C 1.59375 -14.597656 2.191406 -17.609375 3.390625 -20.265625 C 4.585938 -22.921875 6.289062 -25.019531 8.5 -26.5625 C 9.832031 -27.5 11.316406 -28.195312 12.953125 -28.65625 C 14.597656 -29.113281 16.507812 -29.34375 18.6875 -29.34375 Z M 13.546875 -2.8125 C 14.242188 -2.8125 14.90625 -3.125 15.53125 -3.75 C 16.15625 -4.375 16.734375 -5.207031 17.265625 -6.25 C 17.796875 -7.300781 18.28125 -8.492188 18.71875 -9.828125 C 19.15625 -11.160156 19.523438 -12.535156 19.828125 -13.953125 C 20.128906 -15.378906 20.363281 -16.796875 20.53125 -18.203125 C 20.695312 -19.617188 20.78125 -20.90625 20.78125 -22.0625 C 20.78125 -23.632812 20.617188 -24.71875 20.296875 -25.3125 C 19.984375 -25.90625 19.523438 -26.203125 18.921875 -26.203125 C 18.222656 -26.203125 17.554688 -25.894531 16.921875 -25.28125 C 16.285156 -24.675781 15.6875 -23.863281 15.125 -22.84375 C 14.5625 -21.832031 14.0625 -20.664062 13.625 -19.34375 C 13.1875 -18.03125 12.804688 -16.675781 12.484375 -15.28125 C 12.171875 -13.882812 11.925781 -12.503906 11.75 -11.140625 C 11.582031 -9.773438 11.5 -8.519531 11.5 -7.375 C 11.5 -5.644531 11.6875 -4.453125 12.0625 -3.796875 C 12.445312 -3.140625 12.941406 -2.8125 13.546875 -2.8125 Z M 13.546875 -2.8125"/></g><g id="t"><path d="M 6.140625 -28.875 L 25.296875 -28.875 L 24.5625 -25.421875 L 15.28125 -25.421875 L 13.375 -16.640625 L 21.15625 -16.640625 L 20.421875 -13.234375 L 12.640625 -13.234375 L 10.546875 -3.5 L 19.828125 -3.5 L 19.15625 0 L 0 0 Z M 6.140625 -28.875"/></g><g id="h"><path d="M 8.171875 -8.5 C 8.171875 -7.726562 7.9375 -7.082031 7.46875 -6.5625 C 7 -6.039062 6.351562 -5.707031 5.53125 -5.5625 L 5.53125 -5.53125 C 6.175781 -5.40625 6.664062 -5.144531 7 -4.75 C 7.332031 -4.351562 7.5 -3.851562 7.5 -3.25 C 7.5 -2.59375 7.316406 -2.003906 6.953125 -1.484375 C 6.585938 -0.972656 6.0625 -0.570312 5.375 -0.28125 C 4.695312 0 3.894531 0.140625 2.96875 0.140625 C 1.789062 0.140625 0.835938 -0.0507812 0.109375 -0.4375 L 0.109375 -2.40625 C 0.515625 -2.164062 0.957031 -1.984375 1.4375 -1.859375 C 1.925781 -1.734375 2.398438 -1.671875 2.859375 -1.671875 C 3.640625 -1.671875 4.238281 -1.828125 4.65625 -2.140625 C 5.082031 -2.453125 5.296875 -2.882812 5.296875 -3.4375 C 5.296875 -4.289062 4.65625 -4.71875 3.375 -4.71875 L 2.359375 -4.71875 L 2.703125 -6.34375 L 3.234375 -6.34375 C 4.066406 -6.34375 4.71875 -6.492188 5.1875 -6.796875 C 5.65625 -7.109375 5.890625 -7.535156 5.890625 -8.078125 C 5.890625 -8.410156 5.785156 -8.664062 5.578125 -8.84375 C 5.367188 -9.03125 5.070312 -9.125 4.6875 -9.125 C 4.019531 -9.125 3.3125 -8.878906 2.5625 -8.390625 L 1.625 -9.890625 C 2.226562 -10.296875 2.796875 -10.578125 3.328125 -10.734375 C 3.867188 -10.890625 4.484375 -10.96875 5.171875 -10.96875 C 6.109375 -10.96875 6.84375 -10.742188 7.375 -10.296875 C 7.90625 -9.859375 8.171875 -9.257812 8.171875 -8.5 Z M 8.171875 -8.5"/></g><g id="i"><path d="M 2.796875 -1.765625 L 2.84375 -1.59375 C 2.257812 -0.332031 1.613281 0.847656 0.90625 1.953125 L -0.75 1.953125 C -0.382812 1.128906 0.09375 -0.109375 0.6875 -1.765625 Z M 2.796875 -1.765625"/></g><g id="k"><path d="M 6.75 0 L -0.359375 0 L -0.046875 -1.578125 L 3.484375 -4.71875 C 4.367188 -5.5 4.976562 -6.125 5.3125 -6.59375 C 5.65625 -7.0625 5.828125 -7.503906 5.828125 -7.921875 C 5.828125 -8.296875 5.722656 -8.578125 5.515625 -8.765625 C 5.316406 -8.960938 5.050781 -9.0625 4.71875 -9.0625 C 4.382812 -9.0625 4.046875 -8.976562 3.703125 -8.8125 C 3.367188 -8.644531 2.945312 -8.351562 2.4375 -7.9375 L 1.359375 -9.4375 C 2.015625 -9.988281 2.632812 -10.378906 3.21875 -10.609375 C 3.8125 -10.847656 4.429688 -10.96875 5.078125 -10.96875 C 6.015625 -10.96875 6.753906 -10.726562 7.296875 -10.25 C 7.847656 -9.769531 8.125 -9.128906 8.125 -8.328125 C 8.125 -7.804688 8.019531 -7.3125 7.8125 -6.84375 C 7.613281 -6.382812 7.3125 -5.921875 6.90625 -5.453125 C 6.507812 -4.992188 5.851562 -4.390625 4.9375 -3.640625 L 2.953125 -2 L 2.953125 -1.921875 L 7.15625 -1.921875 Z M 6.75 0"/></g><g id="l"><path d="M 5.09375 0 L 2.828125 0 L 4.171875 -6.140625 C 4.335938 -6.890625 4.523438 -7.597656 4.734375 -8.265625 C 4.679688 -8.222656 4.523438 -8.101562 4.265625 -7.90625 C 4.015625 -7.71875 3.367188 -7.300781 2.328125 -6.65625 L 1.34375 -8.25 L 5.53125 -10.8125 L 7.375 -10.8125 Z M 5.09375 0"/></g><g id="m"><path d="M 5.578125 -6.078125 L 9.75 -6.078125 L 8.546875 -0.4375 C 7.890625 -0.207031 7.273438 -0.0546875 6.703125 0.015625 C 6.140625 0.0976562 5.539062 0.140625 4.90625 0.140625 C 3.632812 0.140625 2.648438 -0.21875 1.953125 -0.9375 C 1.253906 -1.664062 0.90625 -2.707031 0.90625 -4.0625 C 0.90625 -5.382812 1.171875 -6.578125 1.703125 -7.640625 C 2.234375 -8.710938 2.972656 -9.535156 3.921875 -10.109375 C 4.878906 -10.691406 5.988281 -10.984375 7.25 -10.984375 C 8.320312 -10.984375 9.332031 -10.738281 10.28125 -10.25 L 9.421875 -8.40625 C 9.054688 -8.601562 8.691406 -8.757812 8.328125 -8.875 C 7.960938 -8.988281 7.566406 -9.046875 7.140625 -9.046875 C 6.390625 -9.046875 5.710938 -8.84375 5.109375 -8.4375 C 4.515625 -8.03125 4.050781 -7.445312 3.71875 -6.6875 C 3.382812 -5.925781 3.21875 -5.109375 3.21875 -4.234375 C 3.21875 -3.390625 3.394531 -2.769531 3.75 -2.375 C 4.101562 -1.976562 4.648438 -1.78125 5.390625 -1.78125 C 5.765625 -1.78125 6.1875 -1.835938 6.65625 -1.953125 L 7.140625 -4.171875 L 5.171875 -4.171875 Z M 5.578125 -6.078125"/></g><g id="n"><path d="M 10.59375 -6.9375 C 10.59375 -5.539062 10.347656 -4.289062 9.859375 -3.1875 C 9.367188 -2.09375 8.703125 -1.265625 7.859375 -0.703125 C 7.015625 -0.140625 6.035156 0.140625 4.921875 0.140625 C 3.660156 0.140625 2.675781 -0.21875 1.96875 -0.9375 C 1.257812 -1.664062 0.90625 -2.675781 0.90625 -3.96875 C 0.90625 -5.28125 1.148438 -6.484375 1.640625 -7.578125 C 2.128906 -8.679688 2.800781 -9.523438 3.65625 -10.109375 C 4.519531 -10.691406 5.515625 -10.984375 6.640625 -10.984375 C 7.898438 -10.984375 8.875 -10.628906 9.5625 -9.921875 C 10.25 -9.210938 10.59375 -8.21875 10.59375 -6.9375 Z M 6.453125 -9.078125 C 5.859375 -9.078125 5.3125 -8.847656 4.8125 -8.390625 C 4.3125 -7.941406 3.921875 -7.320312 3.640625 -6.53125 C 3.359375 -5.75 3.21875 -4.894531 3.21875 -3.96875 C 3.21875 -3.25 3.378906 -2.703125 3.703125 -2.328125 C 4.035156 -1.960938 4.5 -1.78125 5.09375 -1.78125 C 5.6875 -1.78125 6.226562 -1.992188 6.71875 -2.421875 C 7.207031 -2.847656 7.585938 -3.453125 7.859375 -4.234375 C 8.140625 -5.023438 8.28125 -5.90625 8.28125 -6.875 C 8.28125 -7.582031 8.117188 -8.125 7.796875 -8.5 C 7.484375 -8.882812 7.035156 -9.078125 6.453125 -9.078125 Z M 6.453125 -9.078125"/></g><g id="o"><path d="M 2.890625 -3.59375 L 1.109375 -3.59375 L 2.265625 -10.8125 L 4.78125 -10.8125 Z M 0.1875 -0.84375 C 0.1875 -1.289062 0.316406 -1.644531 0.578125 -1.90625 C 0.847656 -2.175781 1.21875 -2.3125 1.6875 -2.3125 C 2.03125 -2.3125 2.300781 -2.21875 2.5 -2.03125 C 2.707031 -1.84375 2.8125 -1.582031 2.8125 -1.25 C 2.8125 -0.8125 2.671875 -0.457031 2.390625 -0.1875 C 2.117188 0.0703125 1.765625 0.203125 1.328125 0.203125 C 0.972656 0.203125 0.691406 0.109375 0.484375 -0.078125 C 0.285156 -0.265625 0.1875 -0.519531 0.1875 -0.84375 Z M 0.1875 -0.84375"/></g><clipPath id="a"><path d="M 35 30 L 249 30 L 249 119 L 35 119 Z M 35 30"/></clipPath><clipPath id="b"><path d="M 24.042969 60.964844 L 236.21875 13.125 L 256.675781 103.847656 L 44.5 151.6875 Z M 24.042969 60.964844"/></clipPath><clipPath id="c"><path d="M 236.390625 13.085938 L 24.214844 60.925781 L 44.671875 151.648438 L 256.84375 103.808594 Z M 236.390625 13.085938"/></clipPath></defs><g clip-path="url(#a)"><g clip-path="url(#b)"><g clip-path="url(#c)"><path fill="#C40909" d="M 109.382812 97.417969 L 160.765625 64.535156 L 161.558594 66.160156 L 118.363281 106.59375 L 118.335938 106.597656 C 116.304688 108.035156 112.796875 106.59375 110.753906 104.730469 C 109.449219 103.554688 107.941406 101.476562 108.230469 99.363281 C 108.359375 98.445312 108.800781 97.824219 109.382812 97.417969 Z M 147.351562 54.429688 L 138.222656 62.914062 L 138.074219 62.949219 C 133.832031 63.535156 129.675781 64.355469 125.515625 65.320312 C 99.367188 71.585938 74.109375 81.535156 53.703125 102.445312 C 51.738281 104.449219 50.304688 102.96875 52.566406 100.101562 C 53.945312 98.351562 55.367188 96.652344 56.800781 95.015625 C 65.183594 85.503906 74.445312 78.429688 84.847656 72.867188 C 98.371094 65.6875 113.203125 61.179688 127.800781 57.675781 C 133.261719 56.382812 138.792969 55.410156 144.398438 54.761719 Z M 191.375 70.179688 C 185.835938 66.898438 179.789062 64.925781 174.027344 63.65625 L 172.394531 63.320312 L 178.449219 55.589844 L 178.765625 55.640625 C 185.726562 56.917969 192.996094 59.042969 199.738281 62.632812 L 201.304688 63.472656 L 191.699219 70.382812 Z M 205.597656 87.261719 C 205.507812 86.851562 205.378906 86.421875 205.230469 86.027344 C 203.269531 80.320312 199.429688 76.042969 195.460938 72.960938 L 194.308594 72.058594 L 203.269531 64.710938 L 203.652344 64.929688 C 208.902344 68.398438 214.515625 73.621094 217.046875 81.039062 C 217.738281 83.023438 218.132812 85.046875 218.292969 87.121094 L 218.359375 88.085938 L 205.828125 88.003906 Z M 193.082031 116.003906 C 198.527344 111.253906 207.003906 101.90625 206.347656 91.527344 L 206.277344 90.535156 L 218.253906 91.414062 L 218.050781 92.683594 C 216.636719 102.03125 210.347656 109.816406 204.964844 114.976562 L 204.839844 115.09375 L 204.722656 115.121094 C 202.320312 115.726562 199.964844 116.40625 197.609375 117.09375 C 196.371094 117.433594 194.976562 117.625 193.742188 117.84375 L 190.238281 118.449219 Z M 168.859375 62.710938 C 161.296875 61.597656 153.71875 61.503906 146.3125 62.039062 L 143.847656 62.226562 L 151.179688 54.179688 L 151.417969 54.15625 C 158.75 53.695312 166.253906 53.871094 173.726562 54.851562 L 175.582031 55.070312 L 169.148438 62.765625 Z M 216.949219 104.898438 L 237.800781 106.746094 L 237.980469 106.460938 C 240.324219 103.144531 242.476562 99.539062 244.285156 95.613281 C 248.097656 87.289062 250.628906 76.800781 247.515625 66.117188 C 243.488281 52.1875 231.839844 43.949219 222.191406 39.421875 C 206.027344 31.898438 187.195312 30.328125 171.0625 30.96875 C 160.207031 31.394531 149.464844 32.871094 138.914062 35.1875 C 117.023438 40 95.023438 48.664062 75.621094 61.242188 C 61.5 70.390625 44.683594 84.40625 36.335938 102.476562 C 34.574219 106.332031 36.027344 107.625 38.253906 104.460938 C 46.640625 92.6875 58.804688 82.996094 69.460938 76 C 85.34375 65.566406 102.949219 57.773438 120.726562 53.03125 C 131.4375 50.1875 142.4375 48.378906 153.609375 48 C 168.289062 47.566406 185.507812 49.039062 200.1875 55.796875 C 208.246094 59.519531 218.886719 66.546875 222.078125 78.402344 C 224.140625 86.046875 222.386719 93.605469 219.707031 99.625 C 219.113281 100.921875 218.472656 102.167969 217.800781 103.390625 L 216.949219 104.898438" fill-rule="evenodd"/></g></g></g><g fill="#121111"><use x="51.411" y="182.502" xmlns:xlink="http://www.w3.org/1999/xlink" xlink:href="#d" xlink:type="simple" xlink:actuate="onLoad" xlink:show="embed"/></g><g fill="#121111"><use x="73.745" y="182.502" xmlns:xlink="http://www.w3.org/1999/xlink" xlink:href="#e" xlink:type="simple" xlink:actuate="onLoad" xlink:show="embed"/></g><g fill="#121111"><use x="102.401" y="182.502" xmlns:xlink="http://www.w3.org/1999/xlink" xlink:href="#f" xlink:type="simple" xlink:actuate="onLoad" xlink:show="embed"/></g><g fill="#121111"><use x="124.325" y="182.502" xmlns:xlink="http://www.w3.org/1999/xlink" xlink:href="#f" xlink:type="simple" xlink:actuate="onLoad" xlink:show="embed"/></g><g fill="#121111"><use x="146.247" y="182.502" xmlns:xlink="http://www.w3.org/1999/xlink" xlink:href="#g" xlink:type="simple" xlink:actuate="onLoad" xlink:show="embed"/></g><g fill="#121111" fill-opacity=".4"><use x="75.983" y="208.993" xmlns:xlink="http://www.w3.org/1999/xlink" xlink:href="#h" xlink:type="simple" xlink:actuate="onLoad" xlink:show="embed"/></g><g fill="#121111" fill-opacity=".4"><use x="88.73" y="208.993" xmlns:xlink="http://www.w3.org/1999/xlink" xlink:href="#i" xlink:type="simple" xlink:actuate="onLoad" xlink:show="embed"/></g><g fill="#121111" fill-opacity=".4"><use x="97.34" y="208.993" xmlns:xlink="http://www.w3.org/1999/xlink" xlink:href="#j" xlink:type="simple" xlink:actuate="onLoad" xlink:show="embed"/></g><g fill="#121111" fill-opacity=".4"><use x="105.675" y="208.993" xmlns:xlink="http://www.w3.org/1999/xlink" xlink:href="#k" xlink:type="simple" xlink:actuate="onLoad" xlink:show="embed"/></g><g fill="#121111" fill-opacity=".4"><use x="118.423" y="208.993" xmlns:xlink="http://www.w3.org/1999/xlink" xlink:href="#i" xlink:type="simple" xlink:actuate="onLoad" xlink:show="embed"/></g><g fill="#121111" fill-opacity=".4"><use x="127.032" y="208.993" xmlns:xlink="http://www.w3.org/1999/xlink" xlink:href="#j" xlink:type="simple" xlink:actuate="onLoad" xlink:show="embed"/></g><g fill="#121111" fill-opacity=".4"><use x="135.368" y="208.993" xmlns:xlink="http://www.w3.org/1999/xlink" xlink:href="#l" xlink:type="simple" xlink:actuate="onLoad" xlink:show="embed"/></g><g fill="#121111" fill-opacity=".4"><use x="148.115" y="208.993" xmlns:xlink="http://www.w3.org/1999/xlink" xlink:href="#j" xlink:type="simple" xlink:actuate="onLoad" xlink:show="embed"/></g><g fill="#121111" fill-opacity=".4"><use x="156.451" y="208.993" xmlns:xlink="http://www.w3.org/1999/xlink" xlink:href="#m" xlink:type="simple" xlink:actuate="onLoad" xlink:show="embed"/></g><g fill="#121111" fill-opacity=".4"><use x="171.309" y="208.993" xmlns:xlink="http://www.w3.org/1999/xlink" xlink:href="#n" xlink:type="simple" xlink:actuate="onLoad" xlink:show="embed"/></g><g fill="#121111" fill-opacity=".4"><use x="186.773" y="208.993" xmlns:xlink="http://www.w3.org/1999/xlink" xlink:href="#o" xlink:type="simple" xlink:actuate="onLoad" xlink:show="embed"/></g><g fill="#121111"><use x="75.313" y="208.322" xmlns:xlink="http://www.w3.org/1999/xlink" xlink:href="#h" xlink:type="simple" xlink:actuate="onLoad" xlink:show="embed"/></g><g fill="#121111"><use x="88.06" y="208.322" xmlns:xlink="http://www.w3.org/1999/xlink" xlink:href="#i" xlink:type="simple" xlink:actuate="onLoad" xlink:show="embed"/></g><g fill="#121111"><use x="96.67" y="208.322" xmlns:xlink="http://www.w3.org/1999/xlink" xlink:href="#j" xlink:type="simple" xlink:actuate="onLoad" xlink:show="embed"/></g><g fill="#121111"><use x="105.005" y="208.322" xmlns:xlink="http://www.w3.org/1999/xlink" xlink:href="#k" xlink:type="simple" xlink:actuate="onLoad" xlink:show="embed"/></g><g fill="#121111"><use x="117.753" y="208.322" xmlns:xlink="http://www.w3.org/1999/xlink" xlink:href="#i" xlink:type="simple" xlink:actuate="onLoad" xlink:show="embed"/></g><g fill="#121111"><use x="126.362" y="208.322" xmlns:xlink="http://www.w3.org/1999/xlink" xlink:href="#j" xlink:type="simple" xlink:actuate="onLoad" xlink:show="embed"/></g><g fill="#121111"><use x="134.698" y="208.322" xmlns:xlink="http://www.w3.org/1999/xlink" xlink:href="#l" xlink:type="simple" xlink:actuate="onLoad" xlink:show="embed"/></g><g fill="#121111"><use x="147.445" y="208.322" xmlns:xlink="http://www.w3.org/1999/xlink" xlink:href="#j" xlink:type="simple" xlink:actuate="onLoad" xlink:show="embed"/></g><g fill="#121111"><use x="155.781" y="208.322" xmlns:xlink="http://www.w3.org/1999/xlink" xlink:href="#m" xlink:type="simple" xlink:actuate="onLoad" xlink:show="embed"/></g><g fill="#121111"><use x="170.639" y="208.322" xmlns:xlink="http://www.w3.org/1999/xlink" xlink:href="#n" xlink:type="simple" xlink:actuate="onLoad" xlink:show="embed"/></g><g fill="#121111"><use x="186.103" y="208.322" xmlns:xlink="http://www.w3.org/1999/xlink" xlink:href="#o" xlink:type="simple" xlink:actuate="onLoad" xlink:show="embed"/></g><g fill="#C40909"><use x="155.873" y="182.502" xmlns:xlink="http://www.w3.org/1999/xlink" xlink:href="#p" xlink:type="simple" xlink:actuate="onLoad" xlink:show="embed"/></g><g fill="#C40909"><use x="181.118" y="182.502" xmlns:xlink="http://www.w3.org/1999/xlink" xlink:href="#q" xlink:type="simple" xlink:actuate="onLoad" xlink:show="embed"/></g><g fill="#C40909"><use x="211.411" y="182.502" xmlns:xlink="http://www.w3.org/1999/xlink" xlink:href="#r" xlink:type="simple" xlink:actuate="onLoad" xlink:show="embed"/></g><g fill="#C40909"><use x="240.203" y="182.502" xmlns:xlink="http://www.w3.org/1999/xlink" xlink:href="#s" xlink:type="simple" xlink:actuate="onLoad" xlink:show="embed"/></g><g fill="#C40909"><use x="271.361" y="182.502" xmlns:xlink="http://www.w3.org/1999/xlink" xlink:href="#p" xlink:type="simple" xlink:actuate="onLoad" xlink:show="embed"/></g><g fill="#C40909"><use x="296.605" y="182.502" xmlns:xlink="http://www.w3.org/1999/xlink" xlink:href="#p" xlink:type="simple" xlink:actuate="onLoad" xlink:show="embed"/></g><g fill="#C40909"><use x="321.85" y="182.502" xmlns:xlink="http://www.w3.org/1999/xlink" xlink:href="#f" xlink:type="simple" xlink:actuate="onLoad" xlink:show="embed"/></g><g fill="#C40909"><use x="343.774" y="182.502" xmlns:xlink="http://www.w3.org/1999/xlink" xlink:href="#t" xlink:type="simple" xlink:actuate="onLoad" xlink:show="embed"/></g></svg>